<svg xmlns="http://www.w3.org/2000/svg" xmlns:xlink="http://www.w3.org/1999/xlink" width="190" zoomAndPan="magnify" viewBox="0 0 142.5 52.499999" height="70" preserveAspectRatio="xMidYMid meet" version="1.0"><defs><g/><clipPath id="0338303533"><path d="M 7.792969 8.949219 L 44.195312 8.949219 L 44.195312 45.355469 L 7.792969 45.355469 Z M 7.792969 8.949219 " clip-rule="nonzero"/></clipPath></defs><g clip-path="url(#0338303533)"><path fill="#38b6ff" d="M 44.046875 25.753906 C 44.046875 25.738281 44.046875 25.726562 44.042969 25.714844 C 44.042969 25.714844 44.042969 25.714844 44.042969 25.710938 L 40.425781 16.21875 C 40.425781 16.21875 40.425781 16.21875 40.425781 16.214844 C 40.417969 16.203125 40.410156 16.1875 40.398438 16.179688 L 32.449219 9.855469 C 32.4375 9.84375 32.421875 9.835938 32.40625 9.835938 C 32.402344 9.835938 32.402344 9.835938 32.402344 9.835938 L 25.914062 8.953125 C 25.898438 8.949219 25.886719 8.949219 25.875 8.953125 L 22.78125 9.832031 L 22.695312 9.832031 C 22.675781 9.832031 22.660156 9.839844 22.644531 9.847656 L 22.566406 9.894531 L 14.953125 12.058594 C 14.953125 12.058594 14.949219 12.0625 14.949219 12.0625 C 14.9375 12.066406 14.929688 12.070312 14.921875 12.078125 C 14.917969 12.082031 14.914062 12.082031 14.910156 12.085938 C 14.910156 12.089844 14.90625 12.089844 14.90625 12.089844 L 8.238281 20.746094 C 8.238281 20.746094 8.238281 20.75 8.234375 20.753906 C 8.234375 20.757812 8.230469 20.761719 8.230469 20.765625 C 8.226562 20.765625 8.226562 20.769531 8.226562 20.773438 C 8.222656 20.777344 8.222656 20.785156 8.222656 20.789062 C 8.222656 20.792969 8.21875 20.792969 8.21875 20.796875 L 7.800781 28.410156 C 7.800781 28.414062 7.800781 28.421875 7.800781 28.429688 L 8.417969 32.277344 C 8.417969 32.28125 8.417969 32.285156 8.421875 32.292969 C 8.421875 32.296875 8.421875 32.296875 8.421875 32.300781 C 8.421875 32.300781 8.425781 32.304688 8.425781 32.304688 C 8.425781 32.304688 8.425781 32.304688 8.425781 32.308594 L 11.527344 38.21875 C 11.535156 38.230469 11.542969 38.238281 11.550781 38.246094 L 15.191406 41.464844 C 15.195312 41.46875 15.203125 41.476562 15.210938 41.480469 L 19.417969 44.316406 C 19.429688 44.324219 19.441406 44.332031 19.457031 44.332031 L 26.058594 45.359375 C 26.058594 45.359375 26.0625 45.359375 26.0625 45.359375 C 26.066406 45.359375 26.070312 45.359375 26.078125 45.359375 C 26.082031 45.359375 26.089844 45.359375 26.097656 45.359375 C 26.097656 45.359375 26.101562 45.359375 26.101562 45.359375 C 26.101562 45.355469 26.101562 45.355469 26.101562 45.355469 L 36.890625 42.203125 C 36.894531 42.203125 36.898438 42.199219 36.902344 42.195312 C 36.914062 42.191406 36.921875 42.1875 36.929688 42.179688 C 36.933594 42.175781 36.9375 42.171875 36.941406 42.167969 L 43.503906 33.511719 C 43.515625 33.496094 43.519531 33.480469 43.523438 33.464844 C 43.523438 33.464844 43.523438 33.460938 43.523438 33.460938 Z M 43.339844 33.378906 L 40.5 34.097656 L 43.820312 26.300781 Z M 31.820312 32.273438 L 21.359375 28.59375 L 29.25 22.910156 Z M 29.25 22.601562 L 21.382812 17.457031 L 31.609375 14.53125 Z M 29.136719 22.757812 L 21.25 28.4375 L 21.25 17.597656 Z M 21.0625 28.46875 L 12.109375 24.078125 L 21.0625 17.609375 Z M 23 39.003906 L 14.46875 34.222656 L 21.089844 28.796875 Z M 21.28125 28.765625 L 31.761719 32.457031 L 23.195312 39.015625 Z M 31.878906 32.605469 L 32.429688 40.449219 L 23.367188 39.121094 Z M 32 32.207031 L 29.433594 22.863281 L 38.160156 23.734375 Z M 38.28125 23.890625 L 40.21875 34.113281 L 32.121094 32.363281 Z M 40.375 33.910156 L 38.460938 23.804688 L 43.824219 25.800781 Z M 38.296875 23.4375 L 31.96875 14.535156 L 40.21875 16.324219 Z M 38.136719 23.539062 L 29.429688 22.671875 L 31.785156 14.605469 Z M 21.28125 17.289062 L 22.761719 10.066406 L 31.488281 14.367188 Z M 21.085938 17.296875 L 14.390625 15.058594 L 22.558594 10.121094 Z M 20.949219 17.453125 L 12.082031 23.863281 L 14.234375 15.207031 Z M 11.875 23.914062 L 8.453125 20.800781 L 13.992188 15.386719 Z M 14.082031 15.035156 L 9.214844 19.789062 L 14.757812 12.59375 Z M 11.8125 24.117188 L 8.597656 31.808594 L 8.414062 21.019531 Z M 11.902344 24.398438 L 14.167969 34.089844 L 8.636719 32.207031 Z M 12.066406 24.265625 L 20.980469 28.640625 L 14.355469 34.066406 Z M 22.882812 39.15625 L 15.339844 41.28125 L 14.417969 34.410156 Z M 23.078125 39.296875 L 25.890625 45.097656 L 15.574219 41.410156 Z M 26.113281 45.121094 L 23.292969 39.304688 L 32.289062 40.621094 Z M 32.613281 40.375 L 32.0625 32.542969 L 40.125 34.285156 Z M 40.09375 34.558594 L 36.816406 41.992188 L 32.722656 40.53125 Z M 40.40625 34.316406 L 43.191406 33.613281 L 37.28125 41.410156 Z M 38.449219 23.597656 L 40.355469 16.558594 L 43.789062 25.582031 Z M 32.457031 10.105469 L 39.960938 16.074219 L 31.855469 14.316406 Z M 25.90625 9.140625 L 30.984375 9.832031 L 23.476562 9.832031 Z M 32.277344 10.023438 L 31.675781 14.246094 L 23.101562 10.023438 Z M 14.320312 14.878906 L 15.058594 12.226562 L 21.949219 10.265625 Z M 7.992188 28.410156 L 8.265625 23.441406 L 8.390625 30.921875 Z M 11.6875 38.113281 L 9.171875 33.316406 L 14.648438 40.734375 Z M 8.765625 32.449219 L 14.214844 34.304688 L 15.117188 41.046875 Z M 15.9375 41.742188 L 25.097656 45.019531 L 19.507812 44.148438 Z M 32.546875 40.667969 L 36.558594 42.101562 L 26.574219 45.023438 Z M 32.546875 40.667969 " fill-opacity="1" fill-rule="nonzero"/></g><g fill="#ffffff" fill-opacity="1"><g transform="translate(24.766533, 39.87381)"><g><path d="M 2.546875 -26.453125 C 3.234375 -27.140625 4.050781 -27.484375 5 -27.484375 C 5.945312 -27.484375 6.757812 -27.140625 7.4375 -26.453125 C 8.125 -25.765625 8.46875 -24.945312 8.46875 -24 C 8.46875 -23.050781 8.125 -22.234375 7.4375 -21.546875 C 6.757812 -20.867188 5.945312 -20.53125 5 -20.53125 C 4.050781 -20.53125 3.234375 -20.867188 2.546875 -21.546875 C 1.859375 -22.234375 1.515625 -23.050781 1.515625 -24 C 1.515625 -24.945312 1.859375 -25.765625 2.546875 -26.453125 Z M 1.984375 -16.984375 L 1.984375 0 L 7.84375 0 L 7.84375 -16.984375 Z M 1.984375 -16.984375 "/></g></g></g><g fill="#ffffff" fill-opacity="1"><g transform="translate(31.651485, 39.87381)"><g><path d="M 1.984375 0 L 1.984375 -16.984375 L 7.84375 -16.984375 L 7.84375 -15.203125 L 7.90625 -15.203125 C 9.4375 -16.722656 11.0625 -17.484375 12.78125 -17.484375 C 13.613281 -17.484375 14.441406 -17.367188 15.265625 -17.140625 C 16.097656 -16.921875 16.894531 -16.578125 17.65625 -16.109375 C 18.425781 -15.648438 19.046875 -14.992188 19.515625 -14.140625 C 19.992188 -13.296875 20.234375 -12.3125 20.234375 -11.1875 L 20.234375 0 L 14.375 0 L 14.375 -9.609375 C 14.375 -10.484375 14.09375 -11.25 13.53125 -11.90625 C 12.96875 -12.570312 12.234375 -12.90625 11.328125 -12.90625 C 10.441406 -12.90625 9.640625 -12.5625 8.921875 -11.875 C 8.203125 -11.195312 7.84375 -10.441406 7.84375 -9.609375 L 7.84375 0 Z M 1.984375 0 "/></g></g></g><g fill="#ffffff" fill-opacity="1"><g transform="translate(50.420035, 39.87381)"><g><path d="M 2.546875 -26.453125 C 3.234375 -27.140625 4.050781 -27.484375 5 -27.484375 C 5.945312 -27.484375 6.757812 -27.140625 7.4375 -26.453125 C 8.125 -25.765625 8.46875 -24.945312 8.46875 -24 C 8.46875 -23.050781 8.125 -22.234375 7.4375 -21.546875 C 6.757812 -20.867188 5.945312 -20.53125 5 -20.53125 C 4.050781 -20.53125 3.234375 -20.867188 2.546875 -21.546875 C 1.859375 -22.234375 1.515625 -23.050781 1.515625 -24 C 1.515625 -24.945312 1.859375 -25.765625 2.546875 -26.453125 Z M 1.984375 -16.984375 L 1.984375 0 L 7.84375 0 L 7.84375 -16.984375 Z M 1.984375 -16.984375 "/></g></g></g><g fill="#ffffff" fill-opacity="1"><g transform="translate(57.304987, 39.87381)"><g><path d="M 2.984375 -16.984375 L 2.984375 -23.3125 L 8.84375 -23.3125 L 8.84375 -16.984375 L 12.421875 -16.984375 L 12.421875 -12.515625 L 8.84375 -12.515625 L 8.84375 -7.125 C 8.84375 -5.550781 9.285156 -4.765625 10.171875 -4.765625 C 10.390625 -4.765625 10.617188 -4.804688 10.859375 -4.890625 C 11.097656 -4.984375 11.285156 -5.078125 11.421875 -5.171875 L 11.625 -5.296875 L 13.078125 -0.5625 C 11.816406 0.144531 10.382812 0.5 8.78125 0.5 C 7.675781 0.5 6.722656 0.304688 5.921875 -0.078125 C 5.128906 -0.460938 4.53125 -0.976562 4.125 -1.625 C 3.71875 -2.28125 3.425781 -2.96875 3.25 -3.6875 C 3.070312 -4.40625 2.984375 -5.175781 2.984375 -6 L 2.984375 -12.515625 L 0.53125 -12.515625 L 0.53125 -16.984375 Z M 2.984375 -16.984375 "/></g></g></g><g fill="#38b6ff" fill-opacity="1"><g transform="translate(67.268488, 39.87381)"><g><path d="M 5.765625 -7.078125 C 6.816406 -7.078125 7.710938 -6.707031 8.453125 -5.96875 C 9.191406 -5.226562 9.5625 -4.332031 9.5625 -3.28125 C 9.5625 -2.238281 9.191406 -1.347656 8.453125 -0.609375 C 7.710938 0.128906 6.816406 0.5 5.765625 0.5 C 4.722656 0.5 3.832031 0.128906 3.09375 -0.609375 C 2.351562 -1.347656 1.984375 -2.238281 1.984375 -3.28125 C 1.984375 -4.332031 2.351562 -5.226562 3.09375 -5.96875 C 3.832031 -6.707031 4.722656 -7.078125 5.765625 -7.078125 Z M 5.765625 -7.078125 "/></g></g></g><g fill="#ffffff" fill-opacity="1"><g transform="translate(70.971102, 30.639738)"><g><path d="M 0.375 -0.5625 C 0.34375 -0.601562 0.328125 -0.644531 0.328125 -0.6875 C 0.328125 -0.71875 0.347656 -0.75 0.390625 -0.78125 C 0.410156 -0.800781 0.4375 -0.8125 0.46875 -0.8125 C 0.519531 -0.8125 0.554688 -0.789062 0.578125 -0.75 C 0.847656 -0.375 1.222656 -0.1875 1.703125 -0.1875 C 1.953125 -0.1875 2.164062 -0.242188 2.34375 -0.359375 C 2.53125 -0.484375 2.625 -0.648438 2.625 -0.859375 C 2.625 -1.066406 2.539062 -1.222656 2.375 -1.328125 C 2.21875 -1.441406 2 -1.535156 1.71875 -1.609375 C 1.34375 -1.691406 1.046875 -1.8125 0.828125 -1.96875 C 0.617188 -2.125 0.515625 -2.34375 0.515625 -2.625 C 0.515625 -2.894531 0.625 -3.117188 0.84375 -3.296875 C 1.0625 -3.484375 1.335938 -3.578125 1.671875 -3.578125 C 1.867188 -3.578125 2.0625 -3.535156 2.25 -3.453125 C 2.4375 -3.378906 2.601562 -3.265625 2.75 -3.109375 C 2.78125 -3.078125 2.796875 -3.046875 2.796875 -3.015625 C 2.796875 -2.972656 2.78125 -2.9375 2.75 -2.90625 C 2.71875 -2.882812 2.6875 -2.875 2.65625 -2.875 C 2.625 -2.875 2.597656 -2.882812 2.578125 -2.90625 C 2.335938 -3.175781 2.03125 -3.3125 1.65625 -3.3125 C 1.40625 -3.3125 1.195312 -3.25 1.03125 -3.125 C 0.863281 -3.007812 0.78125 -2.84375 0.78125 -2.625 C 0.789062 -2.425781 0.878906 -2.269531 1.046875 -2.15625 C 1.210938 -2.050781 1.460938 -1.957031 1.796875 -1.875 C 2.035156 -1.820312 2.226562 -1.757812 2.375 -1.6875 C 2.53125 -1.613281 2.65625 -1.507812 2.75 -1.375 C 2.84375 -1.25 2.890625 -1.082031 2.890625 -0.875 C 2.890625 -0.582031 2.773438 -0.351562 2.546875 -0.1875 C 2.328125 -0.0195312 2.035156 0.0625 1.671875 0.0625 C 1.148438 0.0625 0.71875 -0.144531 0.375 -0.5625 Z M 0.375 -0.5625 "/></g></g></g><g fill="#ffffff" fill-opacity="1"><g transform="translate(75.303584, 30.639738)"><g><path d="M 3.75 -1.75 C 3.75 -1.40625 3.675781 -1.09375 3.53125 -0.8125 C 3.382812 -0.539062 3.179688 -0.328125 2.921875 -0.171875 C 2.660156 -0.015625 2.367188 0.0625 2.046875 0.0625 C 1.722656 0.0625 1.429688 -0.015625 1.171875 -0.171875 C 0.910156 -0.328125 0.703125 -0.539062 0.546875 -0.8125 C 0.398438 -1.09375 0.328125 -1.40625 0.328125 -1.75 C 0.328125 -2.09375 0.398438 -2.398438 0.546875 -2.671875 C 0.703125 -2.953125 0.910156 -3.171875 1.171875 -3.328125 C 1.429688 -3.492188 1.722656 -3.578125 2.046875 -3.578125 C 2.367188 -3.578125 2.660156 -3.492188 2.921875 -3.328125 C 3.179688 -3.171875 3.382812 -2.953125 3.53125 -2.671875 C 3.675781 -2.398438 3.75 -2.09375 3.75 -1.75 Z M 3.46875 -1.75 C 3.46875 -2.039062 3.40625 -2.304688 3.28125 -2.546875 C 3.164062 -2.785156 3 -2.972656 2.78125 -3.109375 C 2.5625 -3.242188 2.316406 -3.3125 2.046875 -3.3125 C 1.773438 -3.3125 1.53125 -3.242188 1.3125 -3.109375 C 1.09375 -2.972656 0.921875 -2.785156 0.796875 -2.546875 C 0.671875 -2.304688 0.609375 -2.039062 0.609375 -1.75 C 0.609375 -1.457031 0.671875 -1.191406 0.796875 -0.953125 C 0.921875 -0.722656 1.09375 -0.535156 1.3125 -0.390625 C 1.53125 -0.253906 1.773438 -0.1875 2.046875 -0.1875 C 2.316406 -0.1875 2.5625 -0.253906 2.78125 -0.390625 C 3 -0.523438 3.164062 -0.710938 3.28125 -0.953125 C 3.40625 -1.191406 3.46875 -1.457031 3.46875 -1.75 Z M 3.46875 -1.75 "/></g></g></g><g fill="#ffffff" fill-opacity="1"><g transform="translate(80.495542, 30.639738)"><g><path d="M 0.890625 -0.140625 C 0.890625 -0.0976562 0.875 -0.0625 0.84375 -0.03125 C 0.820312 -0.0078125 0.789062 0 0.75 0 C 0.707031 0 0.671875 -0.0078125 0.640625 -0.03125 C 0.617188 -0.0625 0.609375 -0.0976562 0.609375 -0.140625 L 0.609375 -5 C 0.609375 -5.03125 0.617188 -5.0625 0.640625 -5.09375 C 0.671875 -5.125 0.707031 -5.140625 0.75 -5.140625 C 0.789062 -5.140625 0.820312 -5.125 0.84375 -5.09375 C 0.875 -5.0625 0.890625 -5.03125 0.890625 -5 Z M 0.890625 -0.140625 "/></g></g></g><g fill="#ffffff" fill-opacity="1"><g transform="translate(83.102138, 30.639738)"><g><path d="M 3.1875 -3.46875 C 3.226562 -3.46875 3.257812 -3.453125 3.28125 -3.421875 C 3.3125 -3.390625 3.328125 -3.359375 3.328125 -3.328125 L 3.328125 -1.296875 C 3.328125 -0.859375 3.203125 -0.523438 2.953125 -0.296875 C 2.710938 -0.0664062 2.378906 0.046875 1.953125 0.046875 C 1.523438 0.046875 1.1875 -0.0664062 0.9375 -0.296875 C 0.695312 -0.523438 0.578125 -0.859375 0.578125 -1.296875 L 0.578125 -3.328125 C 0.578125 -3.359375 0.585938 -3.390625 0.609375 -3.421875 C 0.640625 -3.453125 0.675781 -3.46875 0.71875 -3.46875 C 0.757812 -3.46875 0.789062 -3.453125 0.8125 -3.421875 C 0.84375 -3.390625 0.859375 -3.359375 0.859375 -3.328125 L 0.859375 -1.296875 C 0.859375 -0.953125 0.953125 -0.6875 1.140625 -0.5 C 1.335938 -0.3125 1.609375 -0.21875 1.953125 -0.21875 C 2.296875 -0.21875 2.5625 -0.3125 2.75 -0.5 C 2.945312 -0.6875 3.046875 -0.953125 3.046875 -1.296875 L 3.046875 -3.328125 C 3.046875 -3.359375 3.054688 -3.390625 3.078125 -3.421875 C 3.109375 -3.453125 3.144531 -3.46875 3.1875 -3.46875 Z M 3.1875 -3.46875 "/></g></g></g><g fill="#ffffff" fill-opacity="1"><g transform="translate(88.113885, 30.639738)"><g><path d="M 1.859375 -3.484375 C 1.898438 -3.484375 1.929688 -3.46875 1.953125 -3.4375 C 1.984375 -3.414062 2 -3.390625 2 -3.359375 C 2 -3.316406 1.984375 -3.28125 1.953125 -3.25 C 1.929688 -3.226562 1.898438 -3.21875 1.859375 -3.21875 L 1.109375 -3.21875 L 1.109375 -0.75 C 1.109375 -0.550781 1.140625 -0.414062 1.203125 -0.34375 C 1.273438 -0.28125 1.367188 -0.25 1.484375 -0.25 C 1.503906 -0.25 1.53125 -0.253906 1.5625 -0.265625 C 1.59375 -0.273438 1.625 -0.28125 1.65625 -0.28125 C 1.6875 -0.28125 1.710938 -0.265625 1.734375 -0.234375 C 1.753906 -0.210938 1.765625 -0.1875 1.765625 -0.15625 C 1.765625 -0.113281 1.738281 -0.078125 1.6875 -0.046875 C 1.632812 -0.015625 1.566406 0 1.484375 0 C 1.367188 0 1.269531 -0.00390625 1.1875 -0.015625 C 1.113281 -0.0351562 1.035156 -0.0976562 0.953125 -0.203125 C 0.867188 -0.316406 0.828125 -0.5 0.828125 -0.75 L 0.828125 -3.21875 L 0.25 -3.21875 C 0.21875 -3.21875 0.1875 -3.234375 0.15625 -3.265625 C 0.132812 -3.296875 0.125 -3.328125 0.125 -3.359375 C 0.125 -3.390625 0.132812 -3.414062 0.15625 -3.4375 C 0.1875 -3.46875 0.21875 -3.484375 0.25 -3.484375 L 0.828125 -3.484375 L 0.828125 -4.375 C 0.828125 -4.40625 0.835938 -4.4375 0.859375 -4.46875 C 0.890625 -4.5 0.925781 -4.515625 0.96875 -4.515625 C 1.007812 -4.515625 1.039062 -4.5 1.0625 -4.46875 C 1.09375 -4.4375 1.109375 -4.40625 1.109375 -4.375 L 1.109375 -3.484375 Z M 1.859375 -3.484375 "/></g></g></g><g fill="#ffffff" fill-opacity="1"><g transform="translate(91.413607, 30.639738)"><g><path d="M 0.859375 -0.140625 C 0.859375 -0.0976562 0.84375 -0.0625 0.8125 -0.03125 C 0.78125 -0.0078125 0.75 0 0.71875 0 C 0.675781 0 0.640625 -0.0078125 0.609375 -0.03125 C 0.585938 -0.0625 0.578125 -0.0976562 0.578125 -0.140625 L 0.578125 -3.4375 C 0.578125 -3.46875 0.585938 -3.5 0.609375 -3.53125 C 0.640625 -3.5625 0.675781 -3.578125 0.71875 -3.578125 C 0.757812 -3.578125 0.789062 -3.5625 0.8125 -3.53125 C 0.84375 -3.5 0.859375 -3.46875 0.859375 -3.4375 Z M 0.71875 -4.046875 C 0.644531 -4.046875 0.582031 -4.066406 0.53125 -4.109375 C 0.488281 -4.148438 0.46875 -4.207031 0.46875 -4.28125 L 0.46875 -4.328125 C 0.46875 -4.390625 0.488281 -4.441406 0.53125 -4.484375 C 0.582031 -4.523438 0.644531 -4.546875 0.71875 -4.546875 C 0.78125 -4.546875 0.832031 -4.523438 0.875 -4.484375 C 0.925781 -4.441406 0.953125 -4.390625 0.953125 -4.328125 L 0.953125 -4.28125 C 0.953125 -4.207031 0.925781 -4.148438 0.875 -4.109375 C 0.832031 -4.066406 0.78125 -4.046875 0.71875 -4.046875 Z M 0.71875 -4.046875 "/></g></g></g><g fill="#ffffff" fill-opacity="1"><g transform="translate(93.950895, 30.639738)"><g><path d="M 3.75 -1.75 C 3.75 -1.40625 3.675781 -1.09375 3.53125 -0.8125 C 3.382812 -0.539062 3.179688 -0.328125 2.921875 -0.171875 C 2.660156 -0.015625 2.367188 0.0625 2.046875 0.0625 C 1.722656 0.0625 1.429688 -0.015625 1.171875 -0.171875 C 0.910156 -0.328125 0.703125 -0.539062 0.546875 -0.8125 C 0.398438 -1.09375 0.328125 -1.40625 0.328125 -1.75 C 0.328125 -2.09375 0.398438 -2.398438 0.546875 -2.671875 C 0.703125 -2.953125 0.910156 -3.171875 1.171875 -3.328125 C 1.429688 -3.492188 1.722656 -3.578125 2.046875 -3.578125 C 2.367188 -3.578125 2.660156 -3.492188 2.921875 -3.328125 C 3.179688 -3.171875 3.382812 -2.953125 3.53125 -2.671875 C 3.675781 -2.398438 3.75 -2.09375 3.75 -1.75 Z M 3.46875 -1.75 C 3.46875 -2.039062 3.40625 -2.304688 3.28125 -2.546875 C 3.164062 -2.785156 3 -2.972656 2.78125 -3.109375 C 2.5625 -3.242188 2.316406 -3.3125 2.046875 -3.3125 C 1.773438 -3.3125 1.53125 -3.242188 1.3125 -3.109375 C 1.09375 -2.972656 0.921875 -2.785156 0.796875 -2.546875 C 0.671875 -2.304688 0.609375 -2.039062 0.609375 -1.75 C 0.609375 -1.457031 0.671875 -1.191406 0.796875 -0.953125 C 0.921875 -0.722656 1.09375 -0.535156 1.3125 -0.390625 C 1.53125 -0.253906 1.773438 -0.1875 2.046875 -0.1875 C 2.316406 -0.1875 2.5625 -0.253906 2.78125 -0.390625 C 3 -0.523438 3.164062 -0.710938 3.28125 -0.953125 C 3.40625 -1.191406 3.46875 -1.457031 3.46875 -1.75 Z M 3.46875 -1.75 "/></g></g></g><g fill="#ffffff" fill-opacity="1"><g transform="translate(99.142853, 30.639738)"><g><path d="M 2.15625 -3.578125 C 2.5625 -3.578125 2.867188 -3.453125 3.078125 -3.203125 C 3.285156 -2.960938 3.390625 -2.648438 3.390625 -2.265625 L 3.390625 -0.140625 C 3.390625 -0.0976562 3.375 -0.0625 3.34375 -0.03125 C 3.320312 -0.0078125 3.289062 0 3.25 0 C 3.207031 0 3.171875 -0.0078125 3.140625 -0.03125 C 3.117188 -0.0625 3.109375 -0.0976562 3.109375 -0.140625 L 3.109375 -2.234375 C 3.109375 -2.546875 3.023438 -2.800781 2.859375 -3 C 2.703125 -3.207031 2.457031 -3.3125 2.125 -3.3125 C 1.914062 -3.3125 1.710938 -3.257812 1.515625 -3.15625 C 1.328125 -3.0625 1.171875 -2.929688 1.046875 -2.765625 C 0.921875 -2.597656 0.859375 -2.421875 0.859375 -2.234375 L 0.859375 -0.140625 C 0.859375 -0.0976562 0.84375 -0.0625 0.8125 -0.03125 C 0.78125 -0.0078125 0.75 0 0.71875 0 C 0.675781 0 0.640625 -0.0078125 0.609375 -0.03125 C 0.585938 -0.0625 0.578125 -0.0976562 0.578125 -0.140625 L 0.578125 -3.328125 C 0.578125 -3.359375 0.585938 -3.390625 0.609375 -3.421875 C 0.640625 -3.453125 0.675781 -3.46875 0.71875 -3.46875 C 0.757812 -3.46875 0.789062 -3.453125 0.8125 -3.421875 C 0.84375 -3.390625 0.859375 -3.359375 0.859375 -3.328125 L 0.859375 -2.859375 C 0.984375 -3.066406 1.164062 -3.238281 1.40625 -3.375 C 1.65625 -3.507812 1.90625 -3.578125 2.15625 -3.578125 Z M 2.15625 -3.578125 "/></g></g></g><g fill="#ffffff" fill-opacity="1"><g transform="translate(104.216979, 30.639738)"><g><path d="M 0.375 -0.5625 C 0.34375 -0.601562 0.328125 -0.644531 0.328125 -0.6875 C 0.328125 -0.71875 0.347656 -0.75 0.390625 -0.78125 C 0.410156 -0.800781 0.4375 -0.8125 0.46875 -0.8125 C 0.519531 -0.8125 0.554688 -0.789062 0.578125 -0.75 C 0.847656 -0.375 1.222656 -0.1875 1.703125 -0.1875 C 1.953125 -0.1875 2.164062 -0.242188 2.34375 -0.359375 C 2.53125 -0.484375 2.625 -0.648438 2.625 -0.859375 C 2.625 -1.066406 2.539062 -1.222656 2.375 -1.328125 C 2.21875 -1.441406 2 -1.535156 1.71875 -1.609375 C 1.34375 -1.691406 1.046875 -1.8125 0.828125 -1.96875 C 0.617188 -2.125 0.515625 -2.34375 0.515625 -2.625 C 0.515625 -2.894531 0.625 -3.117188 0.84375 -3.296875 C 1.0625 -3.484375 1.335938 -3.578125 1.671875 -3.578125 C 1.867188 -3.578125 2.0625 -3.535156 2.25 -3.453125 C 2.4375 -3.378906 2.601562 -3.265625 2.75 -3.109375 C 2.78125 -3.078125 2.796875 -3.046875 2.796875 -3.015625 C 2.796875 -2.972656 2.78125 -2.9375 2.75 -2.90625 C 2.71875 -2.882812 2.6875 -2.875 2.65625 -2.875 C 2.625 -2.875 2.597656 -2.882812 2.578125 -2.90625 C 2.335938 -3.175781 2.03125 -3.3125 1.65625 -3.3125 C 1.40625 -3.3125 1.195312 -3.25 1.03125 -3.125 C 0.863281 -3.007812 0.78125 -2.84375 0.78125 -2.625 C 0.789062 -2.425781 0.878906 -2.269531 1.046875 -2.15625 C 1.210938 -2.050781 1.460938 -1.957031 1.796875 -1.875 C 2.035156 -1.820312 2.226562 -1.757812 2.375 -1.6875 C 2.53125 -1.613281 2.65625 -1.507812 2.75 -1.375 C 2.84375 -1.25 2.890625 -1.082031 2.890625 -0.875 C 2.890625 -0.582031 2.773438 -0.351562 2.546875 -0.1875 C 2.328125 -0.0195312 2.035156 0.0625 1.671875 0.0625 C 1.148438 0.0625 0.71875 -0.144531 0.375 -0.5625 Z M 0.375 -0.5625 "/></g></g></g></svg>